<svg xmlns="http://www.w3.org/2000/svg" xmlns:xlink="http://www.w3.org/1999/xlink" version="1.1" class="marks" viewBox="0 0 300 500" id="il-svg" aria-hidden="true">
<g class="il-svg-container" role="graphics-object" aria-roledescription="group mark container">
    <path class="il-svg-path" transform="translate(0,0)" d="M71.01396933636903,11.030039458349165L103.55565431198329,9.129375515611628L109.13218685289013,8.76989101532672L137.50760526273274,7.34195107430196L139.83386210627708,7.227715300829459L167.27174769937437,5.679619850759082L177.975535983834,5.1619019871263845L182.37644344022397,4.681129658459213L208.3701577840431,2.5315185366694095L215.3293047314014,1.9149159841331311L240.87536919611387,0L240.39752226351573,18.880607088520264L246.28824177438048,30.0045546464562L251.74506875195948,35.97120556792743L258.51704860579105,56.681178331099545L264.9733794582045,68.18290498953047L264.9733794582045,68.18290498953047L266.88523506929846,89.57182904160936L268.22556208910794,104.56676519960365L269.2715324262755,116.26857990390681L270.5140773973793,130.16957737673602L272.6836536158538,154.44175603545546L274.6401507968052,176.33010857036834L274.7512305835878,177.57281597433166L277.1306713619905,206.89740064778243L278.9960331871562,230.490793450585L281.4329164239033,255.04936231644115L282.46702117367283,266.6233595099311L283.4969176574392,278.15025658235345L279.3412701256741,286.4267369402387L278.4441655045614,295.666313304755L277.4714258877457,295.7521511867103L283.1602898638117,304.6019323117516L287.2797507963314,317.73589406472047L287.2840268669215,317.78373269257645L287.43324310648916,322.20674090864304L289.003059043074,337.0154405921944L281.36337615102036,348.3019371609116L282.33021769234415,353.66558563282206L275.692748347205,356.947209292804L276.4259130677882,362.5246551880132L262.28668317180825,379.697448018625L260.658919578452,378.05147735955734L261.3498154499972,380.3552225948215L266.79994785723534,386.06304547284935L256.2300046039211,411.20254809109974L256.4855365643275,411.2776446220814L261.3777848385495,419.062733319628L253.4326835873934,431.63120699835144L255.84996279386257,439.6732137905019L261.3431895342658,445.4816510200276L260.08591886288525,448.4307062893522L246.5365486449532,451.33106117461966L241.40414871650285,456.0839293488166L237.52373035222706,454.6124432031065L237.53522053955817,454.75608768017537L233.52301995882476,457.9187326724841L231.9487012391687,469.7520277002377L238.7458088451266,479.33077636582584L234.8085245208323,486.8232017834912L229.21319721091209,486.15583545751633L203.20046757142023,475.0419027928797L202.71125450899478,475.22285649995274L197.03946655199945,476.70243558818083L187.49022190438313,490.68957663104084L190.28585670857717,498.00000000000045L181.44620883380713,490.6886938122266L177.55812505867465,496.26047179920306L172.86382987459893,493.9896114420794L163.79421856995322,475.5991943601716L163.78079306818944,468.08928468171416L163.77750213820298,468.041363823359L167.63022679085265,462.09405186983713L159.62754604396963,447.6704099694707L159.59483470819436,447.19117152761055L159.09095824875948,436.1516522633033L148.56971500357332,431.85490036447845L147.7631295507823,427.2388414766788L135.0158098756201,418.9783330464602L128.9879853412312,422.01356730261614L124.52334288085291,414.40346313866075L109.22832636890092,404.1397511246155L106.0518627166079,400.86785382492826L97.84587049903837,392.16864403142836L98.48932379917045,378.03113668269816L102.92859631408436,365.5901996205548L103.12805013980568,364.80820608595195L107.83029263287875,352.97275162295L108.44112439922179,342.87773291083477L111.44444474527506,339.75692414970126L111.94985331188906,336.02013210556424L100.03462653954853,329.86808279336856L87.82774487609748,326.69557017763964L82.41820618925738,334.94732793327785L73.57426320021915,330.4471155817664L67.98179133814381,304.83294814534156L64.69742110816895,298.4254321192416L52.77653017121719,289.93423723659043L46.003069108864,286.20458413290817L35.5955504003324,273.0378828531452L26.494572899567345,265.8500005655642L22.052045948783473,259.3383058539034L17.095714415509406,252.03186775046834L16.657849027117436,242.92097644677096L12.700617869877476,235.9491891853272L10.996940956925982,220.3642345802091L11.27529892840596,216.07455065006434L16.00168159451374,204.26882294056168L19.062084158201515,202.96727517931413L19.317729890772398,183.64127051338028L30.170674402147768,180.36245492529042L34.91470944977101,174.83555449280811L35.75695834918497,163.35876414902623L43.85355548834707,153.9039115442156L44.11421864235183,140.87332246901542L44.10657361759041,140.72964259304172L40.60716291064472,133.03871096332432L32.41974057566853,126.35830644302405L34.59458302385292,117.93948457466877L34.589614343221456,117.84371814290353L36.32272824637579,110.16788926842128L52.92193516977363,106.20600681805627L73.79681732256779,98.73404214918583L81.43821937533585,91.99304114474853L82.37047122169497,79.93368396926053L86.77813794998798,74.81903997967811L90.85858208092895,72.16972768002142L92.07931965032634,61.38913783688031L91.27958301092633,52.22235311228951L89.83842513901635,44.056098689780356L79.65426586271906,38.483469751141L74.57624310225992,35.81063299999187L68.64610207180777,22.438910517499608L57.261206997206216,15.27438354216656L57.061615210932985,11.73730240005034Z"/>
</g>
</svg>
